<svg width="172" height="172" viewBox="0 0 172 172" fill="none" xmlns="http://www.w3.org/2000/svg">
<path d="M85.9999 100.333C80.0277 100.333 74.9513 98.2431 70.7708 94.0625C66.5902 89.8819 64.4999 84.8056 64.4999 78.8333V35.8333C64.4999 29.8611 66.5902 24.7847 70.7708 20.6042C74.9513 16.4236 80.0277 14.3333 85.9999 14.3333C91.9721 14.3333 97.0485 16.4236 101.229 20.6042C105.41 24.7847 107.5 29.8611 107.5 35.8333V78.8333C107.5 84.8056 105.41 89.8819 101.229 94.0625C97.0485 98.2431 91.9721 100.333 85.9999 100.333ZM78.8333 150.5V128.463C66.411 126.79 56.1388 121.236 48.0166 111.8C39.8944 102.364 35.8333 91.375 35.8333 78.8333H50.1666C50.1666 88.7472 53.6603 97.1979 60.6478 104.185C67.6353 111.173 76.086 114.667 85.9999 114.667C95.9138 114.667 104.365 111.173 111.352 104.185C118.34 97.1979 121.833 88.7472 121.833 78.8333H136.167C136.167 91.375 132.105 102.364 123.983 111.8C115.861 121.236 105.589 126.79 93.1666 128.463V150.5H78.8333Z" fill="#1D1B20"/>
</svg>
